<svg width="67" height="66" viewBox="0 0 67 66" fill="none" xmlns="http://www.w3.org/2000/svg">
<path d="M33.5 0C29.1007 0 24.7445 0.874762 20.6801 2.57434C16.6157 4.27392 12.9227 6.76503 9.81192 9.90544C3.52945 16.2478 0 24.8499 0 33.8193C0 48.7674 9.6145 61.4496 22.914 65.9476C24.589 66.2182 25.125 65.1698 25.125 64.2566V58.5412C15.8455 60.5703 13.869 54.0094 13.869 54.0094C12.328 50.0864 10.1505 49.038 10.1505 49.038C7.102 46.9412 10.385 47.0088 10.385 47.0088C13.735 47.2455 15.5105 50.4922 15.5105 50.4922C18.425 55.6327 23.3495 54.1109 25.259 53.2992C25.5605 51.1009 26.4315 49.6129 27.3695 48.7674C19.9325 47.9219 12.127 45.0135 12.127 32.1283C12.127 28.3744 13.4 25.3645 15.5775 22.9633C15.2425 22.1178 14.07 18.6006 15.9125 14.035C15.9125 14.035 18.7265 13.1219 25.125 17.4846C27.7715 16.7405 30.6525 16.3685 33.5 16.3685C36.3475 16.3685 39.2285 16.7405 41.875 17.4846C48.2735 13.1219 51.0875 14.035 51.0875 14.035C52.93 18.6006 51.7575 22.1178 51.4225 22.9633C53.6 25.3645 54.873 28.3744 54.873 32.1283C54.873 45.0473 47.034 47.8881 39.5635 48.7336C40.7695 49.782 41.875 51.845 41.875 54.9902V64.2566C41.875 65.1698 42.411 66.252 44.1195 65.9476C57.419 61.4158 67 48.7674 67 33.8193C67 29.3781 66.1335 24.9804 64.45 20.8772C62.7664 16.7741 60.2988 13.0459 57.1881 9.90544C54.0773 6.76503 50.3843 4.27392 46.3199 2.57434C42.2555 0.874762 37.8993 0 33.5 0Z" fill="white"/>
</svg>
