<svg width="152" height="140" viewBox="0 0 152 140" fill="none" xmlns="http://www.w3.org/2000/svg">
<g filter="url(#filter0_d_1413_45)">
<path fill-rule="evenodd" clip-rule="evenodd" d="M71.0233 8.7378V76.9707C71.0233 79.4671 69.813 81.7364 67.7705 83.1737L13.2293 121.375C8.76618 124.477 2.41187 122.056 1.42847 116.685C0.293771 110.18 1.8067 102.539 6.34549 94.2938L19.711 70.2618C20.4637 68.9083 22.1189 68.3789 23.6162 68.7749C25.0609 69.1569 26.5781 69.3604 28.1428 69.3604C37.8951 69.3604 45.8008 61.4547 45.8008 51.7024C45.8008 46.6363 43.6674 42.0685 40.2499 38.8484C39.1239 37.7874 38.702 36.1037 39.4536 34.7514L52.1873 11.8393C53.9271 8.7378 55.8183 6.01453 57.7851 3.66948C62.324 -1.62577 71.0233 1.77832 71.0233 8.7378ZM138.77 121.375L84.2293 83.1737C82.1868 81.7365 80.9765 79.4671 80.9765 76.9707V8.7378C80.9765 1.77832 89.6758 -1.62577 94.2146 3.66948C96.1814 6.01453 98.0726 8.7378 99.8125 11.8393L112.832 35.2652C113.561 36.5769 113.186 38.2076 112.13 39.2735C108.968 42.4644 107.015 46.8553 107.015 51.7024C107.015 61.4547 114.921 69.3604 124.673 69.3604C126.026 69.3604 127.344 69.2082 128.61 68.92C130.074 68.5866 131.658 69.1284 132.388 70.441L145.654 94.2938C150.193 102.539 151.706 110.18 150.571 116.685C149.588 122.056 143.234 124.477 138.77 121.375ZM71.465 93.0191L24.9423 124.034C13.7717 131.436 14.3973 137.657 25.5816 138.819C28.1126 139.081 30.6579 138.724 33.1378 138.154L69.1143 129.884C74.0459 128.751 79.1722 128.766 84.0968 129.93L118.783 138.128C121.27 138.715 123.824 139.088 126.368 138.838C137.61 137.733 138.236 131.504 127.065 124.034L80.5426 93.0191C78.0463 91.3549 73.9614 91.3549 71.465 93.0191ZM38.7375 51.702C38.7375 57.5533 33.994 62.2968 28.1427 62.2968C22.2913 62.2968 17.5478 57.5533 17.5478 51.702C17.5478 45.8506 22.2913 41.1072 28.1427 41.1072C33.994 41.1072 38.7375 45.8506 38.7375 51.702ZM124.674 62.2968C130.525 62.2968 135.268 57.5533 135.268 51.702C135.268 45.8506 130.525 41.1072 124.674 41.1072C118.822 41.1072 114.079 45.8506 114.079 51.702C114.079 57.5533 118.822 62.2968 124.674 62.2968Z" fill="url(#paint0_linear_1413_45)"/>
</g>
<defs>
<filter id="filter0_d_1413_45" x="0.0673828" y="0.0830078" width="151.865" height="139.834" filterUnits="userSpaceOnUse" color-interpolation-filters="sRGB">
<feFlood flood-opacity="0" result="BackgroundImageFix"/>
<feColorMatrix in="SourceAlpha" type="matrix" values="0 0 0 0 0 0 0 0 0 0 0 0 0 0 0 0 0 0 127 0" result="hardAlpha"/>
<feOffset/>
<feGaussianBlur stdDeviation="0.5"/>
<feComposite in2="hardAlpha" operator="out"/>
<feColorMatrix type="matrix" values="0 0 0 0 0.266667 0 0 0 0 0.858824 0 0 0 0 0.682353 0 0 0 1 0"/>
<feBlend mode="normal" in2="BackgroundImageFix" result="effect1_dropShadow_1413_45"/>
<feBlend mode="normal" in="SourceGraphic" in2="effect1_dropShadow_1413_45" result="shape"/>
</filter>
<linearGradient id="paint0_linear_1413_45" x1="1.06738" y1="1.08301" x2="151.037" y2="138.804" gradientUnits="userSpaceOnUse">
<stop stop-color="#3DC4CD"/>
<stop offset="1" stop-color="#3FDBAC"/>
</linearGradient>
</defs>
</svg>
